# xmcd CD database file
#
# Track frame offsets:
#	150
#	14802
#	36042
#	55520
#	76170
#	96022
#	117125
#	133545
#	154255
#	182705
#
# Disc length: 2600 seconds
#
# Revision: 0
# Processed by: cddbd v1.5.1PL0 Copyright (c) Steve Scherf et al.
# Submitted via: CDex 1.51
#
DISCID=750a260a
DTITLE=チューリップ - Well
DYEAR=1989
DGENRE=JPop
TTITLE0=さよなら メロディ
TTITLE1=ストロベリー・スマイル
TTITLE2=Crossing
TTITLE3=3月29日 花曇り
TTITLE4=逢う度に逢いたい
TTITLE5=STATION
TTITLE6=My endress love song
TTITLE7=ブルー・ヴェルヴェット イン ブルー
TTITLE8=This is my home town
TTITLE9=Well(Mr.Good-bye)
EXTD=YEAR: 1989
EXTT0=
EXTT1=
EXTT2=
EXTT3=
EXTT4=
EXTT5=
EXTT6=
EXTT7=
EXTT8=
EXTT9=
PLAYORDER=
